<svg xmlns="http://www.w3.org/2000/svg" viewBox="0 0 64 64" role="img" aria-label="游迹—AI赋能的中国文化遗产导览与智能规划平台">
  <defs>
    <linearGradient id="bg" x1="12" x2="52" y1="8" y2="56" gradientUnits="userSpaceOnUse">
      <stop stop-color="#7f1d1d" />
      <stop offset="1" stop-color="#b6402c" />
    </linearGradient>
    <linearGradient id="palace" x1="18" x2="46" y1="16" y2="46" gradientUnits="userSpaceOnUse">
      <stop stop-color="#f9e2a8" />
      <stop offset="1" stop-color="#f2c46d" />
    </linearGradient>
  </defs>
  <rect width="64" height="64" rx="16" fill="url(#bg)" />
  <circle cx="32" cy="18" r="10" fill="#f8e7ba" opacity=".12" />
  <path fill="url(#palace)" d="M13 28.5 22 19h20l9 9.5h-5.5l-2.5-2.5h-22l-2.5 2.5Z" />
  <path fill="url(#palace)" d="M16 29h32v4H16z" />
  <path fill="url(#palace)" d="M18 35a2 2 0 0 1 2-2h24a2 2 0 0 1 2 2v1H18Z" />
  <path fill="url(#palace)" d="M20 36h4v10h-4zm8 0h4v10h-4zm8 0h4v10h-4zm8 0h4v10h-4z" />
  <path fill="#7f1d1d" d="M30 36h4v10h-4z" opacity=".8" />
  <path fill="url(#palace)" d="M17 48h30v4H17zM14 53h36v3H14z" />
</svg>
